<svg width="26" height="29" viewBox="0 0 26 29" fill="none" xmlns="http://www.w3.org/2000/svg">
<path d="M25.6057 25.8314L18.7992 18.4823C20.2722 16.5354 21.085 14.0839 21.085 11.4075C21.085 5.10595 16.3544 0 10.5196 0C4.68482 0 0 5.1076 0 11.4075C0 17.7074 4.73003 22.815 10.5196 22.815C12.9979 22.815 15.2715 21.8876 17.0722 20.3448L23.8787 27.6939C24.1631 27.9539 24.4781 28.08 24.7879 28.08C25.0978 28.08 25.4117 27.9514 25.6499 27.6944C26.1238 27.1806 26.1238 26.3469 25.6057 25.8314ZM2.43816 11.4075C2.43816 6.56918 6.08422 2.6325 10.5653 2.6325C15.0465 2.6325 18.6925 6.56918 18.6925 11.4075C18.6925 16.2458 15.0465 20.1825 10.5653 20.1825C6.08422 20.1825 2.43816 16.2447 2.43816 11.4075Z" fill="white" fill-opacity="0.56"/>
</svg>
